<svg viewBox="0 0 200 200" xmlns="http://www.w3.org/2000/svg">
  <!-- Outer Circle -->
  <circle cx="100" cy="100" r="95" fill="#1e5a96" stroke="#c0c0c0" stroke-width="8"/>
  
  <!-- Inner gradient background -->
  <defs>
    <radialGradient id="bgGradient" cx="50%" cy="30%">
      <stop offset="0%" style="stop-color:#2e7ab8;stop-opacity:1" />
      <stop offset="100%" style="stop-color:#1e5a96;stop-opacity:1" />
    </radialGradient>
    <linearGradient id="arcGradient" x1="0%" y1="0%" x2="100%" y2="0%">
      <stop offset="0%" style="stop-color:#f4a460;stop-opacity:1" />
      <stop offset="100%" style="stop-color:#ffd700;stop-opacity:1" />
    </linearGradient>
  </defs>
  
  <circle cx="100" cy="100" r="87" fill="url(#bgGradient)"/>
  
  <!-- Globe with network -->
  <g id="globe">
    <!-- Globe sphere -->
    <circle cx="100" cy="75" r="35" fill="none" stroke="#87ceeb" stroke-width="1.5" opacity="0.6"/>
    <circle cx="100" cy="75" r="35" fill="none" stroke="#87ceeb" stroke-width="1" opacity="0.4" transform="rotate(45 100 75)"/>
    
    <!-- Book on globe -->
    <g transform="translate(100, 75)">
      <!-- Book pages -->
      <rect x="-12" y="-14" width="10" height="22" fill="#ffffff" stroke="#1e5a96" stroke-width="1" rx="1"/>
      <rect x="-8" y="-14" width="10" height="22" fill="#f0f0f0" stroke="#1e5a96" stroke-width="1" rx="1"/>
      <line x1="-2" y1="-14" x2="-2" y2="8" stroke="#1e5a96" stroke-width="0.8"/>
      
      <!-- Book lines (text) -->
      <line x1="-10" y1="-8" x2="0" y2="-8" stroke="#1e5a96" stroke-width="0.5" opacity="0.6"/>
      <line x1="-10" y1="-4" x2="0" y2="-4" stroke="#1e5a96" stroke-width="0.5" opacity="0.6"/>
      <line x1="-10" y1="0" x2="0" y2="0" stroke="#1e5a96" stroke-width="0.5" opacity="0.6"/>
    </g>
    
    <!-- Graduation cap -->
    <g transform="translate(100, 35)">
      <!-- Cap board -->
      <rect x="-14" y="0" width="28" height="2.5" fill="#ffffff" rx="1"/>
      <!-- Cap -->
      <path d="M -8 0 Q 0 -8 8 0 L 8 3 L -8 3 Z" fill="#ffffff" stroke="#1e5a96" stroke-width="1"/>
      <!-- Tassel -->
      <line x1="0" y1="3" x2="0" y2="12" stroke="#ffd700" stroke-width="1.5"/>
      <circle cx="0" cy="14" r="1.5" fill="#ffd700"/>
    </g>
  </g>
  
  <!-- Building skyline -->
  <g id="buildings" transform="translate(60, 25)">
    <!-- Building 1 -->
    <rect x="0" y="15" width="6" height="18" fill="#87ceeb" stroke="#ffffff" stroke-width="0.5"/>
    <rect x="1" y="17" width="1.2" height="1.5" fill="#1e5a96"/>
    <rect x="3.4" y="17" width="1.2" height="1.5" fill="#1e5a96"/>
    <rect x="1" y="21" width="1.2" height="1.5" fill="#1e5a96"/>
    <rect x="3.4" y="21" width="1.2" height="1.5" fill="#1e5a96"/>
    
    <!-- Building 2 (tall) -->
    <rect x="10" y="8" width="5" height="25" fill="#87ceeb" stroke="#ffffff" stroke-width="0.5"/>
    <rect x="11" y="10" width="1" height="1.3" fill="#1e5a96"/>
    <rect x="13" y="10" width="1" height="1.3" fill="#1e5a96"/>
    <rect x="11" y="14" width="1" height="1.3" fill="#1e5a96"/>
    <rect x="13" y="14" width="1" height="1.3" fill="#1e5a96"/>
    <rect x="11" y="18" width="1" height="1.3" fill="#1e5a96"/>
    <rect x="13" y="18" width="1" height="1.3" fill="#1e5a96"/>
    
    <!-- Building 3 -->
    <rect x="19" y="12" width="5" height="21" fill="#87ceeb" stroke="#ffffff" stroke-width="0.5"/>
    <rect x="20" y="14" width="1" height="1.3" fill="#1e5a96"/>
    <rect x="22" y="14" width="1" height="1.3" fill="#1e5a96"/>
    <rect x="20" y="18" width="1" height="1.3" fill="#1e5a96"/>
    <rect x="22" y="18" width="1" height="1.3" fill="#1e5a96"/>
  </g>
  
  <!-- Light/star effect -->
  <g id="light">
    <circle cx="145" cy="30" r="2.5" fill="#ffffff" opacity="0.9"/>
    <line x1="145" y1="20" x2="145" y2="10" stroke="#ffffff" stroke-width="1" opacity="0.7"/>
    <line x1="155" y1="30" x2="165" y2="30" stroke="#ffffff" stroke-width="1" opacity="0.7"/>
    <line x1="150" y1="20" x2="157" y2="13" stroke="#ffffff" stroke-width="0.8" opacity="0.6"/>
  </g>
  
  <!-- Bottom curved accent line -->
  <path d="M 30 145 Q 100 160 170 145" fill="none" stroke="url(#arcGradient)" stroke-width="3" stroke-linecap="round"/>
  
  <!-- Text "UniInOne" -->
  <text x="100" y="175" font-family="Arial, sans-serif" font-size="24" font-weight="bold" fill="#ffffff" text-anchor="middle">UniInOne</text>
</svg>
